<svg xmlns="http://www.w3.org/2000/svg" width="60" height="39" viewBox="0 0 60 39"><title>Shape</title><path d="M31.86 26.11c-1.25.81-2.88.81-4.13 0L1.66 9.1C.62 8.43 0 7.29 0 6.07V3.64C0 1.63 1.67 0 3.72 0h52.15c2.05 0 3.72 1.63 3.72 3.64v2.43c0 1.22-.62 2.36-1.66 3.03zm27.73 9.11V13.63c0-.54-.3-1.04-.79-1.29-.49-.26-1.08-.23-1.54.07L33.24 28.13c-2.09 1.36-4.8 1.36-6.89 0L2.33 12.41c-.46-.3-1.05-.33-1.54-.07-.49.25-.79.75-.79 1.29v21.59c0 2.01 1.67 3.64 3.72 3.64h52.15c2.05 0 3.72-1.63 3.72-3.64z" fill="#0eacde"/></svg>