<svg xmlns="http://www.w3.org/2000/svg" width="21" height="18" viewBox="0 0 21 18"><title>Shape</title><path d="M18.53 2.85c.89-.57 1.57-1.46 1.89-2.52-.83.52-1.75.9-2.74 1.11C16.9.55 15.78 0 14.54 0c-2.38 0-4.31 2.03-4.31 4.54 0 .36.04.71.11 1.04-3.58-.19-6.75-2-8.88-4.75-.37.67-.58 1.45-.58 2.29 0 1.57.76 2.96 1.92 3.78-.71-.02-1.38-.23-1.96-.57v.06c0 2.2 1.49 4.04 3.46 4.45-.36.11-.74.16-1.14.16-.27 0-.54-.03-.81-.08.55 1.81 2.14 3.12 4.03 3.16-1.48 1.22-3.33 1.94-5.35 1.94-.35 0-.69-.02-1.03-.06C1.91 17.25 4.17 18 6.6 18c7.93 0 12.26-6.92 12.26-12.93 0-.2 0-.39-.01-.59.84-.64 1.57-1.44 2.15-2.35-.77.36-1.6.61-2.47.72z"/></svg>