<svg xmlns="http://www.w3.org/2000/svg" width="23" height="25" viewBox="0 0 23 25"><title>Shape</title><path d="M7.57 24.94c-2.33-.09-3.93-.18-4.25-.24-.46-.09-.97-.4-1.26-.77-.48-.58-.73-1.29-.85-2.38-.29-2.53-.28-5.49.02-7.93.13-1.08.45-1.85.99-2.39.31-.31.6-.48 1-.58.85-.22 7.55-.4 11.63-.3 2.35.05 4.89.16 5.57.23.87.1 1.49.56 1.91 1.42.32.65.43 1.16.56 2.72.1 1.23.12 2 .1 3.43-.02 1.71-.13 3.21-.29 4.05-.17.9-.57 1.66-1.1 2.07-.4.32-.83.46-1.5.5-.2.01-.46.02-.57.03-.39.03-2.48.12-3.62.15-1.7.05-4.68.06-6.3.04-.77-.02-1.69-.04-2.04-.05zM7.52 6.32c.04-.49-.05-.89-.4-1.89-.12-.32-.33-.95-.47-1.4C5.65-.18 5.7.01 5.8 0c.66 0 1.48 0 1.49.01 0 .01.22.79.48 1.75.25.95.47 1.74.47 1.76.01.02.16-.54.34-1.23L9.17.02C9.19 0 9.38 0 9.99 0l.68.01-.02.1c-.01.09-.47 1.65-.96 3.23-.05.17-.18.62-.3 1-.11.38-.24.82-.3.99L9 5.64v1.93c0 1.81-.01 1.93-.06 1.95-.12.03-1.4.02-1.43-.02-.02-.05-.02-2.79.01-3.18zm-1.59 11.7l.01-4.05 1.52-.02-.01-.63-.01-.62-2.19-.01-2.18-.01v1.27l1.48.02.01 4.01c0 2.21.01 4.04.02 4.06.01.04.16.04.67.04l.66-.01zm10.08 3.57c.2-.46.2-.47.2-3.01 0-2.08-.01-2.34-.06-2.56-.17-.73-.53-1.04-1.14-.99-.34.02-.61.16-.94.47-.14.14-.26.25-.28.25-.01 0-.02-.69-.02-1.53v-1.54h-1.2v9.41h1.2v-.32c0-.21.01-.32.03-.32.02 0 .16.11.3.25.47.44.87.56 1.37.41.2-.06.43-.29.54-.52zm-.42-12.41c-.16-.34-.16-.33-.16-3.66v-3.1h1.34l.02 2.86c.01 3.1.01 3.03.19 3.08.17.04.36-.05.6-.29l.22-.23.02-5.42.67-.01h.67V9.5l-.09.02c-.11.02-1.13.02-1.21 0-.05-.02-.06-.06-.06-.34v-.32l-.19.19c-.44.43-.91.63-1.35.57-.34-.05-.53-.18-.67-.44zM21 20.86c.02-.11.06-.41.07-.67l.02-.47h-1.24l-.01.42c-.02.49-.07.65-.24.81-.19.16-.53.17-.76.02-.26-.18-.33-.48-.31-1.47l.01-.7 2.54-.02-.01-1.04c-.02-1.16-.05-1.34-.24-1.75-.37-.78-1.4-1.18-2.25-.86-.65.23-1.03.66-1.18 1.31-.05.24-.06.44-.06 2.14 0 2.09.01 2.17.22 2.6.38.76 1.33 1.16 2.19.92.64-.18 1.08-.62 1.25-1.24zm-11.14.69c.11-.11.22-.2.24-.2.03 0 .05.09.05.37v.37h1.19v-6.97h-1.19v5.37l-.26.26c-.21.2-.29.26-.42.3-.21.06-.35.02-.44-.13-.06-.12-.06-.17-.07-2.96l-.01-2.84h-1.2v3.01c0 3.29.01 3.36.19 3.68.2.35.67.46 1.17.27.23-.09.52-.29.75-.53zm3.01-13.29c-.12.09-.32.13-.48.09-.12-.02-.29-.22-.34-.4-.07-.23-.07-3.75 0-3.99.09-.3.35-.46.63-.39.21.06.32.19.39.48.04.21.05.47.04 2.03-.01 1.99-.01 2.01-.25 2.18zm1.83 12.65c-.2.13-.49.09-.75-.11l-.12-.09v-4.25l.12-.09c.36-.27.74-.24.9.07.06.12.06.23.07 2.09.01 1.79 0 1.99-.05 2.14-.04.11-.09.19-.17.24zm3.88-4.33c.1-.32.3-.48.62-.48.27 0 .44.11.55.34.07.15.08.21.09.75l.01.59h-.65c-.56 0-.65 0-.67-.05-.03-.08.01-1.01.05-1.15zm-6.24-6.96c.18.02.55-.02.76-.08.48-.13.94-.51 1.14-.94.21-.45.22-.57.22-2.64 0-1.71 0-1.89-.06-2.14-.13-.55-.37-.92-.76-1.17-.62-.4-1.32-.45-1.98-.12-.48.24-.78.63-.94 1.2-.07.25-.07.35-.09 2.04-.01 2.18.01 2.44.28 2.93.27.49.82.84 1.43.92z"/></svg>