<svg xmlns="http://www.w3.org/2000/svg" width="44.5" height="44.5" viewBox="0 0 44.5 44.5"><title>Group 446</title><path d="M10.7 16.75v1.83c-1.83.92-.91 5.5 1.84 5.5 0 5.5 6.41 9.17 9.16 9.17M32.75 16.75v1.83c1.83.92.92 5.5-1.83 5.5 0 5.5-6.42 9.17-9.17 9.17" fill-opacity="0" fill="#fff" stroke-dasharray="0" stroke-linejoin="round" stroke-linecap="round" stroke="#0eacde" stroke-miterlimit="50" stroke-width="1.5"/><path d="M32.75 16.58s-3.67-1.83-11-1.83-11 1.83-11 1.83" fill-opacity="0" fill="#fff" stroke-dasharray="0" stroke-linejoin="round" stroke="#0eacde" stroke-miterlimit="50" stroke-width="1.5"/><path d="M9.75 12.75l.92 3.67M9.75 12.67V2.58l6.42 3.67 5.5-5.5 5.5 5.5 6.41-3.67v10.09l-.91 3.66M16.45 30.79L5.51 34.01C2.65 35.09.75 39.21.75 42.26v.92h42.17v-.92c0-3.05-1.9-7.17-4.76-8.25l-10.97-3.26M16.75 18.67c0-1.01.82-.92 1.83-.92 1.02 0 1.84-.09 1.84.92M23.75 18.67c0-1.01.82-.92 1.83-.92 1.02 0 1.84-.09 1.84.92" fill-opacity="0" fill="#fff" stroke-dasharray="0" stroke-linejoin="round" stroke-linecap="round" stroke="#0eacde" stroke-miterlimit="50" stroke-width="1.5"/><path d="M24.25 38.5c0 1.52-1.23 2.75-2.75 2.75s-2.75-1.23-2.75-2.75 1.23-2.75 2.75-2.75 2.75 1.23 2.75 2.75zM19.57 37.67l-6.82-5.92M24.75 37.67l6.82-5.92" fill-opacity="0" fill="#fff" stroke-dasharray="0" stroke-linejoin="round" stroke-linecap="round" stroke="#0eacde" stroke-miterlimit="50" stroke-width="1.5"/></svg>