<svg xmlns="http://www.w3.org/2000/svg" width="16" height="16" viewBox="0 0 16 16"><title>Shape</title><path d="M12.32 10.59c.8-1.15 1.19-2.43 1.19-3.83 0-.92-.17-1.79-.53-2.63-.36-.83-.84-1.55-1.44-2.16-.6-.6-1.32-1.08-2.16-1.44C8.55.18 7.67 0 6.76 0c-.92 0-1.79.18-2.63.53-.83.36-1.55.84-2.16 1.44C1.37 2.58.89 3.3.53 4.13.18 4.97 0 5.84 0 6.76c0 .91.18 1.79.53 2.62.36.84.84 1.56 1.44 2.16.61.6 1.33 1.08 2.16 1.44.84.35 1.71.53 2.63.53 1.4 0 2.68-.39 3.83-1.19l3.29 3.28c.23.25.52.37.86.37.33 0 .62-.12.86-.37.25-.24.37-.53.37-.86 0-.34-.12-.63-.36-.86zm-5.56.47c-1.19 0-2.2-.43-3.04-1.27-.84-.84-1.26-1.85-1.26-3.03 0-1.19.42-2.2 1.26-3.04.84-.84 1.85-1.26 3.04-1.26 1.18 0 2.19.42 3.03 1.26.85.84 1.27 1.85 1.27 3.04 0 1.18-.42 2.19-1.27 3.03-.84.84-1.85 1.27-3.03 1.27z"/></svg>