<svg xmlns="http://www.w3.org/2000/svg" width="44.5" height="38.5" viewBox="0 0 44.5 38.5"><title>Group 619</title><path d="M39.58 14.75v22.3H4.75v-22.3M39.25.75H4.42L.75 8.08h42.17z" fill-opacity="0" fill="#fff" stroke-dasharray="0" stroke-linejoin="round" stroke-linecap="round" stroke="#0eacde" stroke-miterlimit="50" stroke-width="1.5"/><path d="M42.92 9.58c0 4.22-5.06 7.75-9.17 3.67-2.67 4.23-8.54 5.01-11.92 1.17-3.41 3.88-9.28 3.01-11.91-1.17-4.06 4.04-9.17.6-9.17-3.67V7.75h42.17z" fill-opacity="0" fill="#fff" stroke-dasharray="0" stroke-linejoin="round" stroke-linecap="round" stroke="#0eacde" stroke-miterlimit="50" stroke-width="1.5"/><path d="M9.75 13.58v-5.5L11.58.75M21.75 14.77V.75M33.58 13.58v-5.5L31.75.75M26.42 30.08h-3.67v-7.33h3.67M22.75 25.75h3.31M29.75 30.08v-7.33l3.68 7.33-.01-7.33M11.41 26.42c0 2.02-.1 3.66-1.83 3.66-1.72 0-1.83-1.64-1.83-3.66 0-2.03.11-3.67 1.83-3.67 1.73 0 1.83 1.64 1.83 3.67zM15.75 30.08v-7.33h1.95c1.46 0 1.72.84 1.72 1.83 0 1 0 1.84-1.72 1.84h-1.95" fill-opacity="0" fill="#fff" stroke-dasharray="0" stroke-linejoin="round" stroke-linecap="round" stroke="#0eacde" stroke-miterlimit="50" stroke-width="1.5"/></svg>