<svg xmlns="http://www.w3.org/2000/svg" width="24" height="24" viewBox="0 0 24 24"><title>Shape</title><path d="M0 12c0 4.91 2.96 9.14 7.19 10.99-.04-.84-.01-1.84.2-2.75.23-.98 1.55-6.54 1.55-6.54s-.39-.77-.39-1.9c0-1.78 1.03-3.11 2.32-3.11 1.09 0 1.62.82 1.62 1.8 0 1.1-.7 2.74-1.06 4.26-.3 1.27.63 2.31 1.89 2.31 2.27 0 3.81-2.92 3.81-6.38 0-2.63-1.78-4.6-5-4.6-3.64 0-5.91 2.72-5.91 5.75 0 1.05.31 1.78.79 2.35.23.27.26.37.18.67-.06.22-.19.76-.25.97-.08.3-.32.41-.6.3-1.67-.69-2.45-2.52-2.45-4.59 0-3.41 2.87-7.49 8.57-7.49 4.58 0 7.6 3.31 7.6 6.87 0 4.71-2.62 8.22-6.48 8.22-1.29 0-2.51-.7-2.93-1.49 0 0-.69 2.76-.84 3.3-.26.92-.75 1.85-1.21 2.57 1.08.32 2.22.49 3.4.49 6.63 0 12-5.37 12-12S18.63 0 12 0 0 5.37 0 12z"/></svg>