<svg xmlns="http://www.w3.org/2000/svg" viewBox="0 0 31.7 43.1"><path fill="#03B9E5" d="M15.9 40c.7-.9 1.2-1.8 1.9-2.6 1.6-1.9 3.3-3.8 5-5.7 1.8-2.1 3.6-4.3 4.9-6.8 1.8-3.5 2.7-7.1 2-11.1-1.6-9-10.9-14.3-19-10.8C4.5 5.7 1 12.1 2.1 19c.4 2.6 1.4 5 2.7 7.2 1.6 2.7 3.7 5 5.7 7.3 1.7 1.9 3.3 3.9 4.9 5.8.2.3.3.5.5.7z"/><path fill="#FFF" d="M15.8 42.6l-1.3-2c-.1-.1-.1-.2-.2-.3L13 38.7c-1.2-1.4-2.4-2.9-3.6-4.2l-.3-.4c-1.9-2.2-4-4.5-5.6-7.1C1.9 24.4 1 21.8.6 19.2-.6 11.6 3.2 4.6 10 1.7 11.9.9 13.8.5 15.8.5 23.3.5 29.7 6 31.1 13.6c.7 4 0 8-2.1 12.1-1.5 2.9-3.5 5.3-5.1 7.1-.7.7-1.3 1.5-2 2.2-1 1.1-2 2.3-3 3.4-.4.5-.8 1.1-1.2 1.6l-.6.9-1.3 1.7zm.1-39.1c-1.6 0-3.2.3-4.7 1-5.5 2.4-8.6 8.1-7.7 14.3.3 2.2 1.2 4.4 2.5 6.6 1.5 2.4 3.3 4.5 5.2 6.7l.3.4c1.2 1.4 2.5 2.9 3.6 4.3l.5.7c.3-.4.5-.7.8-1 1-1.2 2-2.3 3.1-3.5.7-.7 1.3-1.5 1.9-2.2 1.5-1.7 3.3-3.9 4.7-6.5 1.8-3.5 2.4-6.8 1.8-10.1-.9-6.3-6-10.7-12-10.7z"/></svg>